<svg xmlns="http://www.w3.org/2000/svg" viewBox="0 0 13.54 17.8"><defs><style>.cls-1{fill:#888;}</style></defs><title>rouble </title><g id="Слой_2" data-name="Слой 2"><g id="Слой_1-2" data-name="Слой 1"><path class="cls-1" d="M13.17,2.9a4.27,4.27,0,0,0-1.06-1.52,5.12,5.12,0,0,0-1.74-1A7.16,7.16,0,0,0,8,0H2.24V7.52H0V9.45H2.24v2.86H0v1.93H2.24V17.8H4.78V14.24H9.45V12.31H4.78V9.45H8a7.92,7.92,0,0,0,2.38-.33,4.75,4.75,0,0,0,1.73-.93,3.93,3.93,0,0,0,1.06-1.43,4.86,4.86,0,0,0,.36-1.92A4.89,4.89,0,0,0,13.17,2.9ZM8,7.75H4.55v-6H8a3.65,3.65,0,0,1,1.4.25,3.08,3.08,0,0,1,1,.73,3.08,3.08,0,0,1,.59,1,4.06,4.06,0,0,1,.18,1.16A3.88,3.88,0,0,1,11,6L11,6.13a2.63,2.63,0,0,1-.53.81,3,3,0,0,1-1.06.61A4.13,4.13,0,0,1,8,7.75Z"/></g></g></svg>